<svg width="32" height="32" viewBox="0 0 32 32" fill="none" xmlns="http://www.w3.org/2000/svg">
<path d="M12 14.6666H9.33333V17.3333H12V14.6666ZM17.3333 14.6666H14.6667V17.3333H17.3333V14.6666ZM22.6667 14.6666H20V17.3333H22.6667V14.6666ZM25.3333 5.33329H24V2.66663H21.3333V5.33329H10.6667V2.66663H8V5.33329H6.66667C5.18667 5.33329 4.01333 6.53329 4.01333 7.99996L4 26.6666C4 28.1333 5.18667 29.3333 6.66667 29.3333H25.3333C26.8 29.3333 28 28.1333 28 26.6666V7.99996C28 6.53329 26.8 5.33329 25.3333 5.33329ZM25.3333 26.6666H6.66667V12H25.3333V26.6666Z" fill="white"/>
</svg>
