<svg width="32" height="32" viewBox="0 0 32 32" fill="none" xmlns="http://www.w3.org/2000/svg">
<path d="M0 6C0 2.68629 2.68629 0 6 0H26C29.3137 0 32 2.68629 32 6V26C32 29.3137 29.3137 32 26 32H6C2.68629 32 0 29.3137 0 26V6Z" fill="#3B589C"/>
<path d="M25.4159 15.298L24.7194 20.1259H21.0587V32.0001H16.1491V20.1259H12.16V15.298H16.1491V11.6183C16.1491 7.43295 18.4935 5.12012 22.0835 5.12012C23.8019 5.12012 25.6 5.44633 25.6 5.44633V9.55662H23.6178C21.6662 9.55662 21.0587 10.8452 21.0587 12.1663V15.298H25.4159Z" fill="white"/>
</svg>
