<svg width="40" height="40" viewBox="0 0 40 40" fill="none" xmlns="http://www.w3.org/2000/svg">
<rect width="40" height="40" rx="20" fill="url(#paint0_linear_1763_1445)"/>
<path fill-rule="evenodd" clip-rule="evenodd" d="M22.7 17.9L24.9 16.6C23.9 15.1 22.3 14.2 20.5 14V16.6C21.4 16.7 22.2 17.2 22.7 17.9ZM25.4 22.6C25.8 21.8 26 20.9 26 20C26 19.1 25.8 18.2 25.4 17.4L23.2 18.7C23.4 19.1 23.5 19.5 23.5 20C23.5 20.5 23.4 20.9 23.2 21.3L25.4 22.6ZM24.9 23.4C23.9 24.8 22.3 25.8 20.5 26V23.5C21.4 23.4 22.2 22.9 22.7 22.2L24.9 23.4ZM19.5001 26V23.5C18.6001 23.3 17.8001 22.9 17.3001 22.1L15.1001 23.4C16.1001 24.9 17.7001 25.9 19.5001 26ZM16.5 20C16.5 20.5 16.6 20.9 16.8 21.3L14.6 22.6C14.2 21.8 14 20.9 14 20C14 19.1 14.2 18.2 14.6 17.4L16.8 18.7C16.6 19.1 16.5 19.5 16.5 20ZM19.5001 16.5V14C17.7001 14.2 16.1001 15.1 15.1001 16.6L17.3001 17.8C17.8001 17.1 18.6001 16.6 19.5001 16.5Z" fill="#2798D5"/>
<path fill-rule="evenodd" clip-rule="evenodd" d="M10 20C10 14.5 14.5 10 20 10C25.5 10 30 14.5 30 20C30 23.3 28.4 26.2 26 28H29V29H11V28H14C11.6 26.2 10 23.3 10 20ZM13 20C13 23.9 16.1 27 20 27C23.9 27 27 23.9 27 20C27 16.1 23.9 13 20 13C16.1 13 13 16.1 13 20ZM21 20C21 19.4 20.6 19 20 19C19.4 19 19 19.4 19 20C19 20.6 19.4 21 20 21C20.6 21 21 20.6 21 20ZM18 20C18 18.9 18.9 18 20 18C21.1 18 22 18.9 22 20C22 21.1 21.1 22 20 22C18.9 22 18 21.1 18 20Z" fill="#2798D5"/>
<path fill-rule="evenodd" clip-rule="evenodd" d="M20 10V13C23.9 13 27 16.1 27 20C27 23.9 23.9 27 20 27V29H29V28H26C28.4 26.2 30 23.3 30 20C30 14.5 25.5 10 20 10ZM20 22C21.1 22 22 21.1 22 20C22 18.9 21.1 18 20 18V19C20.6 19 21 19.4 21 20C21 20.6 20.6 21 20 21V22Z" fill="url(#paint1_linear_1763_1445)" style="mix-blend-mode:multiply"/>
<defs>
<linearGradient id="paint0_linear_1763_1445" x1="20" y1="40" x2="20" y2="0" gradientUnits="userSpaceOnUse">
<stop stop-color="#F7F7F7"/>
<stop offset="1" stop-color="#F7F7F7" stop-opacity="0"/>
</linearGradient>
<linearGradient id="paint1_linear_1763_1445" x1="20" y1="19.5" x2="30" y2="19.5" gradientUnits="userSpaceOnUse">
<stop stop-color="#323232" stop-opacity="0.12"/>
<stop offset="1" stop-color="white" stop-opacity="0"/>
</linearGradient>
</defs>
</svg>
