<svg width="24" height="24" viewBox="0 0 24 24" fill="none" xmlns="http://www.w3.org/2000/svg">
<path fill-rule="evenodd" clip-rule="evenodd" d="M14.7 9.9L16.9 8.6C15.9 7.1 14.3 6.2 12.5 6V8.6C13.4 8.7 14.2 9.2 14.7 9.9ZM17.4 14.6C17.8 13.8 18 12.9 18 12C18 11.1 17.8 10.2 17.4 9.40002L15.2 10.7C15.4 11.1 15.5 11.5 15.5 12C15.5 12.5 15.4 12.9 15.2 13.3L17.4 14.6ZM16.9 15.4C15.9 16.8 14.3 17.8 12.5 18V15.5C13.4 15.4 14.2 14.9 14.7 14.2L16.9 15.4ZM11.5001 18V15.5C10.6001 15.3 9.8001 14.9 9.3001 14.1L7.1001 15.4C8.1001 16.9 9.7001 17.9 11.5001 18ZM8.5 12C8.5 12.5 8.6 12.9 8.8 13.3L6.6 14.6C6.2 13.8 6 12.9 6 12C6 11.1 6.2 10.2 6.6 9.40002L8.8 10.7C8.6 11.1 8.5 11.5 8.5 12ZM11.5001 8.5V6C9.7001 6.2 8.1001 7.1 7.1001 8.6L9.3001 9.8C9.8001 9.1 10.6001 8.6 11.5001 8.5Z" fill="#2798D5"/>
<path fill-rule="evenodd" clip-rule="evenodd" d="M2 12C2 6.5 6.5 2 12 2C17.5 2 22 6.5 22 12C22 15.3 20.4 18.2 18 20H21V21H3V20H6C3.6 18.2 2 15.3 2 12ZM5 12C5 15.9 8.1 19 12 19C15.9 19 19 15.9 19 12C19 8.1 15.9 5 12 5C8.1 5 5 8.1 5 12ZM13 12C13 11.4 12.6 11 12 11C11.4 11 11 11.4 11 12C11 12.6 11.4 13 12 13C12.6 13 13 12.6 13 12ZM10 12C10 10.9 10.9 10 12 10C13.1 10 14 10.9 14 12C14 13.1 13.1 14 12 14C10.9 14 10 13.1 10 12Z" fill="#2798D5"/>
<path fill-rule="evenodd" clip-rule="evenodd" d="M12 2V5C15.9 5 19 8.1 19 12C19 15.9 15.9 19 12 19V21H21V20H18C20.4 18.2 22 15.3 22 12C22 6.5 17.5 2 12 2ZM12 14C13.1 14 14 13.1 14 12C14 10.9 13.1 10 12 10V11C12.6 11 13 11.4 13 12C13 12.6 12.6 13 12 13V14Z" fill="url(#paint0_linear_1008_10648)" style="mix-blend-mode:multiply"/>
<defs>
<linearGradient id="paint0_linear_1008_10648" x1="12" y1="11.5" x2="22" y2="11.5" gradientUnits="userSpaceOnUse">
<stop stop-color="#323232" stop-opacity="0.12"/>
<stop offset="1" stop-color="white" stop-opacity="0"/>
</linearGradient>
</defs>
</svg>
