<svg width="38" height="52" viewBox="0 0 38 52" fill="none" xmlns="http://www.w3.org/2000/svg">
<path fill-rule="evenodd" clip-rule="evenodd" d="M0.949951 19.8545C0.949951 9.92723 9.02495 1.89087 19 1.89087C28.975 1.89087 37.0499 9.92723 37.0499 19.8545C37.0499 29.7818 28.975 37.8181 19 37.8181C9.02495 37.8181 0.949951 29.7818 0.949951 19.8545ZM2.84995 19.8545C2.84995 28.6945 10.1175 35.9272 19 35.9272C27.8825 35.9272 35.15 28.6945 35.15 19.8545C35.15 11.0145 27.8825 3.78178 19 3.78178C10.1175 3.78178 2.84995 11.0145 2.84995 19.8545ZM29.3075 14.6072C30.1625 14.6072 30.875 15.1272 31.1125 15.9309C31.35 16.7345 31.065 17.5854 30.495 18.1054L25.27 21.8872L27.265 28.0327C27.5025 28.8363 27.2175 29.6872 26.5525 30.16C26.1725 30.3963 25.7925 30.5381 25.4125 30.5381C24.985 30.5381 24.605 30.3963 24.2725 30.16L19.0475 26.3781L13.8225 30.16C13.1575 30.6327 12.255 30.6327 11.59 30.16C10.8775 29.64 10.64 28.8363 10.8775 28.0327L12.8725 21.8872L7.6475 18.1054C6.935 17.5854 6.6975 16.7818 6.935 15.9781C7.1725 15.1745 7.885 14.6545 8.74 14.6545H15.2L17.195 8.50906C17.4325 7.70542 18.145 7.18542 19 7.18542C19.855 7.18542 20.5675 7.70542 20.805 8.50906L22.8 14.6545L29.3075 14.6072ZM5.60486 47.0836L9.78486 46.28L12.1599 49.8254L16.3399 39.8982C13.9174 39.5673 11.5899 38.8109 9.54736 37.7236L5.60486 47.0836ZM23.7025 47.6036L20.995 39.9927C23.465 39.7091 25.7925 39.0472 27.8825 38.0545L30.4 45.24L26.2675 44.2L23.7025 47.6036Z" fill="white"/>
</svg>
