<svg width="24" height="24" viewBox="0 0 24 24" fill="none" xmlns="http://www.w3.org/2000/svg">
<path fill-rule="evenodd" clip-rule="evenodd" d="M8 4H7V5H6V3C6 2.4 6.4 2 7 2H10C10.6 2 11 2.4 11 3V5H10V4H9V5H8V4ZM15.4 5.3L19 7.4C19.6 7.8 20 8.4 20 9.1V19C20 19.5523 19.5523 20 19 20H5C4.5 20 4 19.6 4 19V11L6 7V6H11V6.3L12.5 5.3C12.8 5.1 13.2 5 13.6 5H14.4C14.7 5 15.1 5.1 15.4 5.3ZM7 10V18H13V10H7ZM12.4 7.8L18 10.9V9.1L14.4 7H13.6L12.4 7.8Z" fill="#C25C9E"/>
<path d="M10 17C11.1 17 12 16.1 12 15C12 13.9 10 11 10 11C10 11 8 13.9 8 15C8 16.1 8.9 17 10 17Z" fill="#C25C9E"/>
<path fill-rule="evenodd" clip-rule="evenodd" d="M15.4 5.3L19 7.4V18C19 18.5523 18.5523 19 18 19H11V18H13V10H11V6.3L12.5 5.3C12.8 5.1 13.2 5 13.6 5H14.4C14.7 5 15.1 5.1 15.4 5.3ZM12.4 7.8L18 10.9V9.1L14.4 7H13.6L12.4 7.8Z" fill="url(#paint0_linear_1008_10652)" style="mix-blend-mode:multiply"/>
<defs>
<linearGradient id="paint0_linear_1008_10652" x1="11" y1="12" x2="19" y2="12" gradientUnits="userSpaceOnUse">
<stop stop-color="#323232" stop-opacity="0.12"/>
<stop offset="1" stop-color="white" stop-opacity="0"/>
</linearGradient>
</defs>
</svg>
