<svg width="24" height="24" viewBox="0 0 24 24" fill="none" xmlns="http://www.w3.org/2000/svg">
<path d="M12 3H6.64162C3 3 3 6.64162 3 6.64162V12H5.26301V8.48844L5.88728 9.11272C6.69364 9.91908 7.99422 9.91908 8.80058 9.11272L9.19075 8.72254C9.99711 7.91619 9.99711 6.61561 9.19075 5.80925L8.64451 5.26301H12V3Z" fill="#2798D5"/>
<path d="M21 12V6.64162C21 3 17.7723 3 17.7723 3H13V5.26301H16.1124L15.5591 5.88728C14.8444 6.69364 14.8444 7.99422 15.5591 8.80058L15.9049 9.19075C16.6196 9.99711 17.7723 9.99711 18.487 9.19075L18.9712 8.64451V12H21V12Z" fill="#C25C9E"/>
<path d="M3 13V17.763C3 21 6.64162 21 6.64162 21H12V18.9884H8.48844L9.11272 18.4335C9.91907 17.7168 9.91907 16.5607 9.11272 15.8439L8.72254 15.4971C7.91618 14.7803 6.61561 14.7803 5.80925 15.4971L5.26301 15.9827V13H3V13Z" fill="#2798D5"/>
<path d="M13 21H17.763C21 21 21 17.763 21 17.763V13H18.9884V16.1214L18.4335 15.5665C17.7168 14.8497 16.5607 14.8497 15.8439 15.5665L15.4971 15.9133C14.7803 16.6301 14.7803 17.7861 15.4971 18.5029L15.9827 18.9884H13V21V21Z" fill="#2798D5"/>
<path fill-rule="evenodd" clip-rule="evenodd" d="M21 6.64162V12H18.9712V8.64451L18.487 9.19075C17.7723 9.99711 16.6196 9.99711 15.9049 9.19075L15.5591 8.80058C14.8444 7.99422 14.8444 6.69364 15.5591 5.88728L16.1124 5.26301H13V3H17.7723C17.7723 3 21 3 21 6.64162ZM17.763 21H13V18.9884H15.9827L15.4971 18.5029C14.7803 17.7861 14.7803 16.6301 15.4971 15.9133L15.8439 15.5665C16.5607 14.8497 17.7168 14.8497 18.4335 15.5665L18.9884 16.1214V13H21V17.763C21 17.763 21 21 17.763 21Z" fill="url(#paint0_linear_1008_10656)" style="mix-blend-mode:multiply"/>
<defs>
<linearGradient id="paint0_linear_1008_10656" x1="13" y1="12" x2="21" y2="12" gradientUnits="userSpaceOnUse">
<stop stop-color="#323232" stop-opacity="0.12"/>
<stop offset="1" stop-color="white" stop-opacity="0"/>
</linearGradient>
</defs>
</svg>
