<svg width="32" height="32" viewBox="0 0 32 32" fill="none" xmlns="http://www.w3.org/2000/svg">
<path d="M0 6C0 2.68629 2.68629 0 6 0H26C29.3137 0 32 2.68629 32 6V26C32 29.3137 29.3137 32 26 32H6C2.68629 32 0 29.3137 0 26V6Z" fill="#1DA2D9"/>
<path d="M21.12 10.24L16.6746 19.379L16.31 19.7223L13.0671 22.8183C12.8369 23.0385 12.5554 23.1032 12.3507 22.9737C12.2612 22.9154 12.1844 22.8247 12.1333 22.6887L10.24 17.3258L21.12 10.24Z" fill="#C9DAEB"/>
<path d="M15.36 20.5828L12.9067 22.8188C12.6667 23.0385 12.3734 23.1032 12.16 22.9739L12.4734 18.5601L15.36 20.5828Z" fill="#AAC6D9"/>
<path d="M19.2834 23.503C19.805 23.8912 20.5326 23.6101 20.6807 22.9609L23.5975 9.83665C23.8937 8.37096 23.3464 8.14341 22.6896 8.4245L6.18671 14.7357C5.60721 14.9632 5.62008 15.6927 6.21246 15.8868L10.2561 17.2856L20.0046 11.1484C20.0947 11.0949 20.1849 11.2153 20.1076 11.289L12.6836 18.5505L19.2834 23.503Z" fill="white"/>
</svg>
