<svg width="32" height="32" viewBox="0 0 32 32" fill="none" xmlns="http://www.w3.org/2000/svg">
<path d="M0 6C0 2.68629 2.68629 0 6 0H26C29.3137 0 32 2.68629 32 6V26C32 29.3137 29.3137 32 26 32H6C2.68629 32 0 29.3137 0 26V6Z" fill="#40C351"/>
<path fill-rule="evenodd" clip-rule="evenodd" d="M5.89478 16C5.89478 10.4156 10.4156 5.89478 16 5.89478C21.5845 5.89478 26.1053 10.4156 26.1053 16C26.1053 21.5845 21.5845 26.1053 16 26.1053C14.2449 26.1053 12.4898 25.6266 11.0006 24.7757L8.60724 25.4139L6.00115 26.1053L6.69256 23.446L7.33079 21.159C6.37345 19.6167 5.89478 17.8083 5.89478 16ZM11.2665 23.0737C12.6493 23.9779 14.2449 24.5097 16 24.5097C20.6804 24.5097 24.5097 20.6804 24.5097 16C24.5097 11.3197 20.6804 7.49034 16 7.49034C11.3197 7.49034 7.49034 11.3197 7.49034 16C7.49034 17.8083 8.07538 19.5103 9.03273 20.8931L8.23494 23.8715L11.2665 23.0737ZM19.956 17.7537C20.2501 17.8986 20.5185 18.0308 20.6271 18.0743C20.7276 18.1496 20.8163 18.2013 20.8931 18.246C20.9788 18.2959 21.0497 18.3373 21.1058 18.3934C21.159 18.4997 21.159 19.0316 20.9462 19.6166C20.7335 20.2549 19.723 20.7867 19.2443 20.8399C19.204 20.8444 19.1641 20.8496 19.1236 20.8549C18.682 20.9128 18.1611 20.981 16.2127 20.2017C13.7567 19.2295 12.1375 16.7313 11.9234 16.4011C11.915 16.388 11.9087 16.3784 11.9047 16.3723C11.8979 16.3621 11.8877 16.3474 11.8748 16.3287C11.6859 16.0556 10.8942 14.9109 10.8942 13.7662C10.8942 12.6541 11.419 12.0668 11.6948 11.7582C11.7356 11.7126 11.7709 11.673 11.7983 11.6388C12.0643 11.3729 12.3302 11.3197 12.4897 11.3197H12.9684C13.1811 11.3197 13.3407 11.3197 13.5534 11.7452C13.7462 12.0921 14.0507 12.8582 14.224 13.2941C14.2897 13.4595 14.3366 13.5774 14.3512 13.6067C14.4044 13.713 14.4576 13.8726 14.3512 14.0321C14.298 14.1119 14.2582 14.1784 14.2183 14.2449C14.1784 14.3114 14.1385 14.3779 14.0853 14.4576C14.0321 14.5108 13.9656 14.5906 13.8992 14.6704C13.8327 14.7502 13.7662 14.8299 13.713 14.8831C13.6943 14.9111 13.674 14.9375 13.6541 14.9634C13.5604 15.0849 13.4751 15.1957 13.6066 15.415C13.713 15.6809 14.2449 16.4787 14.9895 17.1701C15.8756 18.007 16.6251 18.2971 16.9425 18.42C16.968 18.4299 16.9907 18.4386 17.0105 18.4466C17.2233 18.6061 17.3828 18.5529 17.5424 18.3934C17.5983 18.3187 17.6936 18.2048 17.8005 18.0769C17.9985 17.8402 18.2366 17.5555 18.3402 17.3828C18.4997 17.1701 18.7125 17.1701 18.9252 17.2765C19.051 17.3079 19.5304 17.544 19.956 17.7537Z" fill="white"/>
</svg>
