<svg width="54" height="69" viewBox="0 0 54 69" fill="none" xmlns="http://www.w3.org/2000/svg">
<g clip-path="url(#clip0_739_17005)">
<path d="M25.2001 0H15.5689C9.02344 0 9.02344 6.43142 9.02344 6.43142V15.8948H13.091V9.69308L14.213 10.7956C15.6624 12.2197 18.0001 12.2197 19.4494 10.7956L20.1507 10.1065C21.6001 8.68242 21.6001 6.38549 20.1507 4.96138L19.1689 3.99667H25.2001V0Z" fill="#F9B350"/>
<path d="M45.0234 15.8948V6.43142C45.0234 0 38.478 0 38.478 0H28.8V3.99667H35.1117L33.9897 5.0992C32.5403 6.5233 32.5403 8.82024 33.9897 10.2443L34.691 10.9334C36.1403 12.3575 38.478 12.3575 39.9273 10.9334L40.9091 9.96871V15.8948H45.0234Z" fill="#C25C9E"/>
<path d="M9.02344 19.5699V29.0333C9.02344 35.4648 15.5689 35.4648 15.5689 35.4648H25.2001V31.4681H18.8884L20.0105 30.3656C21.4598 28.9415 21.4598 26.6445 20.0105 25.2204L19.3092 24.5313C17.8598 23.1072 15.5221 23.1072 14.0728 24.5313L13.091 25.496V19.5699H9.02344Z" fill="#B9D15F"/>
<path d="M28.8 35.4648H38.4312C44.9767 35.4648 44.9767 29.0333 44.9767 29.0333V19.5699H40.9091V25.7717L39.7871 24.6691C38.3377 23.245 36 23.245 34.5507 24.6691L33.8494 25.3582C32.4 26.7823 32.4 29.0793 33.8494 30.5034L34.8312 31.4681H28.8V35.4648Z" fill="#2798D5"/>
<path d="M1.12207 63.8089C1.12207 63.1198 1.26233 62.6604 1.54285 62.5226V62.3389H0.7948V61.4201H4.34805C5.00259 61.4201 5.51688 61.6498 5.7974 62.0632C6.12467 62.4767 6.26493 63.0739 6.26493 63.763V68.219H1.12207V63.8089ZM5.32986 63.3495C5.32986 62.982 5.23636 62.7523 5.0961 62.5685C4.95584 62.3848 4.76883 62.3389 4.48831 62.3389H2.38441C2.1974 62.3389 2.05714 62.4767 2.05714 62.7523V67.2543H5.32986V63.3495ZM7.85454 65.233V61.3741H8.78961V65.233H7.85454ZM13.6519 63.3495C13.6519 62.6604 13.3247 62.3389 12.7169 62.3389H10.239V61.3741H12.8571C14.0727 61.3741 14.7273 62.5226 14.7273 64.7736C14.7273 65.7843 14.5403 66.6112 14.213 67.2084C13.839 67.8515 13.2779 68.1731 12.5766 68.1731H10.426V67.2543H12.6234C13.2779 67.2543 13.6519 66.8868 13.6519 66.1058V63.3495ZM19.2156 63.3954C19.2156 62.7064 18.8883 62.3389 18.2338 62.3389H15.7091V61.4201H18.0935C19.4961 61.4201 20.1974 62.1551 20.1974 63.6251V68.1731H19.2623V63.3954H19.2156ZM25.013 68.219H24.0779V64.5899C24.0779 64.452 24.0779 64.2683 24.0779 64.1305C24.0779 63.9467 24.1247 63.763 24.1714 63.5792C24.2182 63.3954 24.3117 63.2117 24.4052 62.982C24.4987 62.7523 24.639 62.5685 24.7792 62.3389H21.3195V61.3741H25.9948V62.201C25.8078 62.2929 25.6208 62.3389 25.5273 62.4307C25.387 62.5226 25.2935 62.5685 25.2467 62.7064C25.1532 62.7982 25.1065 62.9361 25.1065 63.0279C25.0597 63.1658 25.0597 63.3036 25.0597 63.4873V68.219H25.013ZM30.7169 63.3036C30.7169 62.6604 30.3896 62.3389 29.7818 62.3389H27.3506V61.4201H29.8753C30.2026 61.4201 30.4364 61.466 30.6701 61.5579C30.9039 61.6498 31.0909 61.7876 31.2312 62.0173C31.3714 62.247 31.5117 62.5226 31.5584 62.8901C31.6519 63.2576 31.6987 63.717 31.6987 64.3142C31.6987 64.9114 31.6519 65.5086 31.5584 66.014C31.4649 66.5193 31.2312 66.9787 30.9506 67.3002H31.9325V68.219H27.4442V67.3002H29.5948C29.9221 67.3002 30.2026 67.2084 30.3896 66.9787C30.5766 66.749 30.7169 66.4274 30.7169 65.968V63.3036ZM41.1429 61.3741L40.9091 64.6358C40.9091 64.9574 40.8623 65.233 40.7688 65.5086C40.7221 65.7843 40.5818 66.0599 40.4416 66.2896C40.3013 66.5652 40.1143 66.7949 39.8338 67.0246C39.6 67.2543 39.2727 67.484 38.8519 67.6678L36.3273 68.954L36 68.1731L37.3558 67.4381L35.7662 61.3741H36.8883L37.8701 65.968L38.0571 67.1624L39.1792 66.5193C39.3195 66.4274 39.4597 66.3355 39.5532 66.1977C39.6468 66.0599 39.7403 65.9221 39.8338 65.7383C39.9273 65.5546 39.974 65.3708 39.974 65.1871C40.0208 65.0033 40.0208 64.8195 40.0208 64.6358L40.161 61.3741H41.1429ZM42.8727 68.219V61.4201H43.8078V68.219H42.8727ZM45.5377 65.233V61.3741H46.4727V65.233H45.5377ZM54 64.8196C54 65.4168 53.9532 65.9221 53.813 66.3355C53.7195 66.749 53.5325 67.1165 53.2987 67.3921C53.0649 67.6677 52.7844 67.8974 52.4104 68.0353C52.0364 68.1731 51.6156 68.265 51.1013 68.265C50.1195 68.265 49.3714 68.0353 48.9039 67.5299C48.3896 67.0246 48.1558 66.2436 48.1558 65.233V64.4061C48.1558 63.9467 48.2026 63.5333 48.3429 63.2117C48.4831 62.8901 48.6234 62.5685 48.9039 62.3389H47.9688V61.3741H51.8961C52.3636 61.3741 52.7844 61.466 53.0649 61.6498C53.3455 61.8335 53.5792 62.0632 53.7195 62.3848C53.8597 62.7064 53.9532 63.0739 54 63.4873C54 63.8548 54 64.3142 54 64.8196ZM52.9714 63.3036C52.9714 62.6604 52.6442 62.3389 51.9896 62.3389H49.8857C49.4182 62.3389 49.1844 62.6604 49.1844 63.3036V65.7383C49.1844 66.0599 49.2312 66.3355 49.3247 66.5193C49.4182 66.749 49.5584 66.8868 49.7455 67.0246C49.9325 67.1624 50.1195 67.2543 50.3532 67.3002C50.587 67.3462 50.8208 67.3921 51.1013 67.3921C51.7091 67.3921 52.1766 67.2543 52.4571 67.0246C52.7377 66.7949 52.9247 66.3355 52.9247 65.7383V63.3036H52.9714Z" fill="#0F425F"/>
<path d="M0.88831 50.3948C0.88831 48.8788 1.16883 47.9141 1.72987 47.5925V47.225H0.233765V43.8256H8.27532C9.58441 43.8256 10.5195 44.2849 11.1273 45.2037C11.7351 46.1225 12.0623 47.3628 12.0623 48.8788V58.5719H0.88831V50.3948ZM8.6026 49.4301C8.6026 48.6491 8.50909 48.0979 8.27532 47.7304C8.04156 47.3628 7.71428 47.1791 7.2 47.1791H4.95584C4.53506 47.1791 4.34805 47.5007 4.34805 48.0979V55.1265H8.55584V49.4301H8.6026ZM14.961 52.4161V43.7796H18.4675V52.4161H14.961ZM28.0519 58.526H24.5455V52.0486C24.5455 51.727 24.5455 51.3595 24.5922 50.992C24.639 50.6245 24.6857 50.2111 24.7792 49.7976C24.8727 49.3842 25.013 48.9707 25.2 48.5113C25.387 48.0519 25.6208 47.5925 25.9481 47.1332H20.4312V43.6877H29.9688V46.6278C29.2208 47.0872 28.7065 47.5466 28.426 48.0519C28.1455 48.5573 28.0519 49.1545 28.0519 49.8895V58.526ZM32.7273 52.4161V43.7796H36.2338V52.4161H32.7273ZM45.8649 58.526H42.3584V52.0486C42.3584 51.727 42.3584 51.3595 42.4052 50.992C42.4519 50.6245 42.4987 50.2111 42.5922 49.7976C42.6857 49.3842 42.826 48.9707 43.013 48.5113C43.2 48.0519 43.4338 47.5925 43.761 47.1332H38.2442V43.6877H47.7818V46.6278C47.0338 47.0872 46.5195 47.5466 46.239 48.0519C45.9584 48.5573 45.8649 49.1545 45.8649 49.8895V58.526ZM50.4935 52.4161V43.7796H54V52.4161H50.4935Z" fill="#0F425F"/>
</g>
<defs>
<clipPath id="clip0_739_17005">
<rect width="54" height="69" fill="white"/>
</clipPath>
</defs>
</svg>
