<?xml version="1.0" standalone="no"?>
<!DOCTYPE svg PUBLIC "-//W3C//DTD SVG 20010904//EN"
 "http://www.w3.org/TR/2001/REC-SVG-20010904/DTD/svg10.dtd">
<svg version="1.0" xmlns="http://www.w3.org/2000/svg"
 width="54.000000pt" height="69.000000pt" viewBox="0 0 54.000000 69.000000"
 preserveAspectRatio="xMidYMid meet">

<g transform="translate(0.000000,69.000000) scale(0.100000,-0.100000)"
fill="#000000" stroke="none">
<path d="M290 671 c0 -17 6 -21 30 -21 28 0 30 -2 19 -22 -10 -18 -8 -24 11
-40 17 -13 26 -15 41 -8 16 9 19 7 19 -15 0 -18 5 -25 20 -25 17 0 20 7 20 49
0 72 -21 93 -99 99 -57 4 -61 3 -61 -17z"/>
<path d="M0 235 c0 -8 3 -15 8 -15 4 0 5 -25 4 -55 l-4 -55 56 0 56 0 0 58 c0
32 -5 63 -12 70 -18 18 -108 16 -108 -3z m88 -57 c3 -35 1 -38 -22 -38 -24 0
-26 4 -26 41 0 36 2 40 23 37 18 -2 23 -10 25 -40z"/>
<path d="M150 210 c0 -29 4 -40 15 -40 11 0 15 11 15 40 0 29 -4 40 -15 40
-11 0 -15 -11 -15 -40z"/>
<path d="M210 235 c0 -9 9 -15 23 -15 21 0 22 -4 19 -55 -3 -45 -1 -55 12 -55
12 0 16 11 16 49 0 28 5 53 10 56 6 3 10 13 10 21 0 10 -12 14 -45 14 -33 0
-45 -4 -45 -15z"/>
<path d="M330 210 c0 -29 4 -40 15 -40 11 0 15 11 15 40 0 29 -4 40 -15 40
-11 0 -15 -11 -15 -40z"/>
<path d="M380 235 c0 -10 10 -15 28 -15 27 0 27 -1 24 -55 -3 -45 -1 -55 12
-55 13 0 16 11 16 55 0 30 5 55 10 55 6 0 10 7 10 15 0 11 -12 15 -50 15 -38
0 -50 -4 -50 -15z"/>
<path d="M510 210 c0 -29 4 -40 15 -40 11 0 15 11 15 40 0 29 -4 40 -15 40
-11 0 -15 -11 -15 -40z"/>
<path d="M11 43 c-1 -30 2 -33 27 -32 22 1 23 2 5 6 -14 3 -23 13 -26 31 -4
24 -4 24 -6 -5z"/>
<path d="M81 54 c0 -11 3 -14 6 -6 3 7 2 16 -1 19 -3 4 -6 -2 -5 -13z"/>
<path d="M192 40 c0 -19 2 -27 5 -17 2 9 2 25 0 35 -3 9 -5 1 -5 -18z"/>
<path d="M242 40 c0 -19 2 -27 5 -17 2 9 2 25 0 35 -3 9 -5 1 -5 -18z"/>
<path d="M401 53 c-1 -25 -17 -39 -23 -21 -3 7 -7 3 -10 -10 -5 -19 -4 -20 14
-11 22 12 32 33 25 51 -3 7 -6 3 -6 -9z"/>
<path d="M432 40 c0 -19 2 -27 5 -17 2 9 2 25 0 35 -3 9 -5 1 -5 -18z"/>
<path d="M529 42 c-3 -20 -2 -29 4 -23 5 5 7 19 5 32 -3 20 -5 19 -9 -9z"/>
<path d="M483 41 c1 -14 9 -26 17 -28 10 -3 11 -2 4 4 -7 4 -14 17 -17 28 -5
16 -5 15 -4 -4z"/>
<path d="M118 13 c7 -3 16 -2 19 1 4 3 -2 6 -13 5 -11 0 -14 -3 -6 -6z"/>
<path d="M288 13 c6 -2 18 -2 25 0 6 3 1 5 -13 5 -14 0 -19 -2 -12 -5z"/>
</g>
</svg>
